<svg width="47" height="62" viewBox="0 0 47 62" fill="none" xmlns="http://www.w3.org/2000/svg">
<path d="M4.40625 62C3.18229 62 2.14193 61.5694 1.28516 60.7083C0.428385 59.8472 0 58.8016 0 57.5714V25.5381C0 24.3079 0.428385 23.2623 1.28516 22.4012C2.14193 21.5401 3.18229 21.1095 4.40625 21.1095H9.54688V14.0238C9.54688 10.1365 10.9055 6.82738 13.6227 4.09643C16.3398 1.36548 19.6323 0 23.5 0C27.3677 0 30.6602 1.36548 33.3773 4.09643C36.0945 6.82738 37.4531 10.1365 37.4531 14.0238V21.1095H42.5938C43.8177 21.1095 44.8581 21.5401 45.7148 22.4012C46.5716 23.2623 47 24.3079 47 25.5381V57.5714C47 58.8016 46.5716 59.8472 45.7148 60.7083C44.8581 61.5694 43.8177 62 42.5938 62H4.40625ZM4.40625 57.5714H42.5938V25.5381H4.40625V57.5714ZM23.5 47.2381C25.0667 47.2381 26.4008 46.6968 27.5023 45.6143C28.6039 44.5317 29.1547 43.2278 29.1547 41.7024C29.1547 40.2262 28.6039 38.8853 27.5023 37.6798C26.4008 36.4742 25.0667 35.8714 23.5 35.8714C21.9333 35.8714 20.5992 36.4742 19.4977 37.6798C18.3961 38.8853 17.8453 40.2262 17.8453 41.7024C17.8453 43.2278 18.3961 44.5317 19.4977 45.6143C20.5992 46.6968 21.9333 47.2381 23.5 47.2381ZM13.9531 21.1095H33.0469V14.0238C33.0469 11.3667 32.1167 9.10317 30.2563 7.23333C28.3958 5.36349 26.1437 4.42857 23.5 4.42857C20.8563 4.42857 18.6042 5.36349 16.7437 7.23333C14.8833 9.10317 13.9531 11.3667 13.9531 14.0238V21.1095Z" fill="#4A72FF"/>
</svg>
