<svg width="37" height="35" viewBox="0 0 37 35" fill="none" xmlns="http://www.w3.org/2000/svg">
<path d="M2.76316 35C2.02632 35 1.38158 34.7237 0.828948 34.1711C0.276316 33.6184 0 32.9737 0 32.2368V10.1316C0 9.39474 0.276316 8.75 0.828948 8.19737C1.38158 7.64474 2.02632 7.36842 2.76316 7.36842H11.0526V2.76316C11.0526 2.02632 11.3289 1.38158 11.8816 0.828947C12.4342 0.276316 13.0789 0 13.8158 0H23.0263C23.7632 0 24.4079 0.276316 24.9605 0.828947C25.5132 1.38158 25.7895 2.02632 25.7895 2.76316V7.36842H34.079C34.8158 7.36842 35.4605 7.64474 36.0132 8.19737C36.5658 8.75 36.8421 9.39474 36.8421 10.1316V32.2368C36.8421 32.9737 36.5658 33.6184 36.0132 34.1711C35.4605 34.7237 34.8158 35 34.079 35H2.76316ZM2.76316 32.2368H34.079V10.1316H2.76316V32.2368ZM13.8158 7.36842H23.0263V2.76316H13.8158V7.36842Z" fill="#4A72FF"/>
</svg>
