<svg width="227" height="79" viewBox="0 0 227 79" fill="none" xmlns="http://www.w3.org/2000/svg">
<rect y="3" width="197" height="35" fill="#4A72FF"/>
<path d="M9.312 8.8H20.04C23.496 8.8 26.196 9.544 28.14 11.032C30.084 12.52 31.056 14.716 31.056 17.62C31.056 20.524 30.084 22.672 28.14 24.064C26.22 25.456 23.52 26.152 20.04 26.152H17.7V33.028C17.7 33.292 17.604 33.52 17.412 33.712C17.22 33.904 16.992 34 16.728 34H9.312C9.048 34 8.82 33.904 8.628 33.712C8.436 33.52 8.34 33.292 8.34 33.028V9.772C8.34 9.508 8.436 9.28 8.628 9.088C8.82 8.896 9.048 8.8 9.312 8.8ZM17.52 15.496V19.492H20.04C20.472 19.492 20.856 19.336 21.192 19.024C21.528 18.688 21.696 18.22 21.696 17.62C21.696 17.02 21.564 16.516 21.3 16.108C21.036 15.7 20.616 15.496 20.04 15.496H17.52ZM57.6451 32.812C57.7171 32.956 57.7531 33.112 57.7531 33.28C57.7531 33.448 57.6691 33.616 57.5011 33.784C57.3571 33.928 57.1771 34 56.9611 34H49.5811C48.8371 34 48.3211 33.676 48.0331 33.028L44.9371 26.152H43.4611V33.028C43.4611 33.292 43.3651 33.52 43.1731 33.712C42.9811 33.904 42.7531 34 42.4891 34H35.4331C35.1691 34 34.9411 33.904 34.7491 33.712C34.5571 33.52 34.4611 33.292 34.4611 33.028V9.772C34.4611 9.508 34.5571 9.28 34.7491 9.088C34.9411 8.896 35.1691 8.8 35.4331 8.8H46.0891C49.5451 8.8 52.2451 9.58 54.1891 11.14C56.1331 12.676 57.1051 14.896 57.1051 17.8C57.1051 20.68 55.8091 22.948 53.2171 24.604L57.6451 32.812ZM43.4611 15.496V19.312H46.0891C46.6171 19.312 47.0251 19.144 47.3131 18.808C47.6011 18.448 47.7451 18.004 47.7451 17.476C47.7451 16.948 47.6011 16.492 47.3131 16.108C47.0491 15.7 46.6411 15.496 46.0891 15.496H43.4611ZM63.7358 11.104C65.9438 9.328 68.8598 8.44 72.4838 8.44C76.1078 8.44 79.0118 9.34 81.1958 11.14C83.4038 12.916 84.5078 15.424 84.5078 18.664V24.28C84.5078 27.568 83.4158 30.076 81.2318 31.804C79.0718 33.508 76.1558 34.36 72.4838 34.36C68.8118 34.36 65.8838 33.508 63.6998 31.804C61.5398 30.076 60.4598 27.568 60.4598 24.28V18.664C60.4598 15.4 61.5518 12.88 63.7358 11.104ZM70.5398 26.62C71.0198 27.1 71.6678 27.34 72.4838 27.34C73.2998 27.34 73.9478 27.1 74.4278 26.62C74.9078 26.14 75.1478 25.408 75.1478 24.424V18.376C75.1478 17.416 74.9078 16.696 74.4278 16.216C73.9478 15.712 73.2998 15.46 72.4838 15.46C71.6678 15.46 71.0198 15.712 70.5398 16.216C70.0598 16.696 69.8198 17.416 69.8198 18.376V24.424C69.8198 25.408 70.0598 26.14 70.5398 26.62ZM110.709 9.772V24.532C110.709 27.796 109.617 30.256 107.433 31.912C105.273 33.544 102.537 34.36 99.2251 34.36C95.9131 34.36 93.1411 33.568 90.9091 31.984C88.6771 30.4 87.5611 28.252 87.5611 25.54C87.5611 25.324 87.6331 25.144 87.7771 25C87.9451 24.832 88.1371 24.748 88.3531 24.748H95.6971C96.0811 24.748 96.3691 24.844 96.5611 25.036C96.7771 25.204 96.9931 25.528 97.2091 26.008C97.4251 26.464 97.6771 26.8 97.9651 27.016C98.2771 27.232 98.7091 27.34 99.2611 27.34C100.677 27.34 101.385 26.368 101.385 24.424V16.108H90.6931C90.4291 16.108 90.2011 16.012 90.0091 15.82C89.8171 15.628 89.7211 15.4 89.7211 15.136V9.772C89.7211 9.508 89.8171 9.28 90.0091 9.088C90.2011 8.896 90.4291 8.8 90.6931 8.8H109.737C110.001 8.8 110.229 8.896 110.421 9.088C110.613 9.28 110.709 9.508 110.709 9.772ZM123.855 26.98H134.943C135.207 26.98 135.435 27.076 135.627 27.268C135.819 27.46 135.915 27.688 135.915 27.952V33.028C135.915 33.292 135.819 33.52 135.627 33.712C135.435 33.904 135.207 34 134.943 34H116.187C115.923 34 115.695 33.904 115.503 33.712C115.311 33.52 115.215 33.292 115.215 33.028V9.772C115.215 9.508 115.311 9.28 115.503 9.088C115.695 8.896 115.923 8.8 116.187 8.8H134.655C134.919 8.8 135.147 8.896 135.339 9.088C135.531 9.28 135.627 9.508 135.627 9.772V14.848C135.627 15.112 135.531 15.34 135.339 15.532C135.147 15.724 134.919 15.82 134.655 15.82H123.855V18.088H133.863C134.127 18.088 134.355 18.184 134.547 18.376C134.739 18.568 134.835 18.796 134.835 19.06V23.74C134.835 24.004 134.739 24.232 134.547 24.424C134.355 24.616 134.127 24.712 133.863 24.712H123.855V26.98ZM148.886 18.376V24.424C148.886 26.368 149.774 27.34 151.55 27.34C152.918 27.34 153.818 26.692 154.25 25.396C154.37 24.988 154.514 24.712 154.682 24.568C154.874 24.424 155.174 24.352 155.582 24.352H162.926C163.142 24.352 163.322 24.436 163.466 24.604C163.634 24.748 163.718 24.928 163.718 25.144C163.718 27.232 163.118 28.984 161.918 30.4C159.71 33.04 156.266 34.36 151.586 34.36C147.914 34.36 144.986 33.556 142.802 31.948C140.618 30.316 139.526 27.82 139.526 24.46V18.34C139.526 15.052 140.642 12.58 142.874 10.924C145.106 9.268 148.01 8.44 151.586 8.44C156.266 8.44 159.71 9.76 161.918 12.4C163.118 13.816 163.718 15.568 163.718 17.656C163.718 17.872 163.634 18.064 163.466 18.232C163.322 18.376 163.142 18.448 162.926 18.448H155.582C155.198 18.448 154.91 18.376 154.718 18.232C154.55 18.088 154.394 17.812 154.25 17.404C153.794 16.108 152.894 15.46 151.55 15.46C149.774 15.46 148.886 16.432 148.886 18.376ZM166.853 8.8H187.949C188.213 8.8 188.441 8.896 188.633 9.088C188.825 9.28 188.921 9.508 188.921 9.772V15.568C188.921 15.832 188.825 16.06 188.633 16.252C188.441 16.444 188.213 16.54 187.949 16.54H181.973V33.028C181.973 33.292 181.877 33.52 181.685 33.712C181.493 33.904 181.265 34 181.001 34H173.801C173.537 34 173.309 33.904 173.117 33.712C172.925 33.52 172.829 33.292 172.829 33.028V16.54H166.853C166.589 16.54 166.361 16.444 166.169 16.252C165.977 16.06 165.881 15.832 165.881 15.568V9.772C165.881 9.508 165.977 9.28 166.169 9.088C166.361 8.896 166.589 8.8 166.853 8.8Z" fill="white"/>
<path d="M43.052 42.8H64.148C64.412 42.8 64.64 42.896 64.832 43.088C65.024 43.28 65.12 43.508 65.12 43.772V49.568C65.12 49.832 65.024 50.06 64.832 50.252C64.64 50.444 64.412 50.54 64.148 50.54H58.172V67.028C58.172 67.292 58.076 67.52 57.884 67.712C57.692 67.904 57.464 68 57.2 68H50C49.736 68 49.508 67.904 49.316 67.712C49.124 67.52 49.028 67.292 49.028 67.028V50.54H43.052C42.788 50.54 42.56 50.444 42.368 50.252C42.176 50.06 42.08 49.832 42.08 49.568V43.772C42.08 43.508 42.176 43.28 42.368 43.088C42.56 42.896 42.788 42.8 43.052 42.8ZM91.731 66.812C91.803 66.956 91.839 67.112 91.839 67.28C91.839 67.448 91.755 67.616 91.587 67.784C91.443 67.928 91.263 68 91.047 68H83.667C82.923 68 82.407 67.676 82.119 67.028L79.023 60.152H77.547V67.028C77.547 67.292 77.451 67.52 77.259 67.712C77.067 67.904 76.839 68 76.575 68H69.519C69.255 68 69.027 67.904 68.835 67.712C68.643 67.52 68.547 67.292 68.547 67.028V43.772C68.547 43.508 68.643 43.28 68.835 43.088C69.027 42.896 69.255 42.8 69.519 42.8H80.175C83.631 42.8 86.331 43.58 88.275 45.14C90.219 46.676 91.191 48.896 91.191 51.8C91.191 54.68 89.895 56.948 87.303 58.604L91.731 66.812ZM77.547 49.496V53.312H80.175C80.703 53.312 81.111 53.144 81.399 52.808C81.687 52.448 81.831 52.004 81.831 51.476C81.831 50.948 81.687 50.492 81.399 50.108C81.135 49.7 80.727 49.496 80.175 49.496H77.547ZM103.15 42.8H110.962C111.826 42.8 112.366 43.196 112.582 43.988L120.61 66.956C120.634 67.028 120.646 67.148 120.646 67.316C120.646 67.46 120.562 67.616 120.394 67.784C120.25 67.928 120.07 68 119.854 68H113.194C112.474 68 112.006 67.7 111.79 67.1L110.926 64.724H103.186L102.322 67.1C102.106 67.7 101.638 68 100.918 68H94.2578C94.0418 68 93.8498 67.928 93.6818 67.784C93.5378 67.616 93.4658 67.46 93.4658 67.316C93.4658 67.148 93.4778 67.028 93.5018 66.956L101.53 43.988C101.746 43.196 102.286 42.8 103.15 42.8ZM105.022 57.704H109.09L107.038 51.008L105.022 57.704ZM132.171 52.376V58.424C132.171 60.368 133.059 61.34 134.835 61.34C136.203 61.34 137.103 60.692 137.535 59.396C137.655 58.988 137.799 58.712 137.967 58.568C138.159 58.424 138.459 58.352 138.867 58.352H146.211C146.427 58.352 146.607 58.436 146.751 58.604C146.919 58.748 147.003 58.928 147.003 59.144C147.003 61.232 146.403 62.984 145.203 64.4C142.995 67.04 139.551 68.36 134.871 68.36C131.199 68.36 128.271 67.556 126.087 65.948C123.903 64.316 122.811 61.82 122.811 58.46V52.34C122.811 49.052 123.927 46.58 126.159 44.924C128.391 43.268 131.295 42.44 134.871 42.44C139.551 42.44 142.995 43.76 145.203 46.4C146.403 47.816 147.003 49.568 147.003 51.656C147.003 51.872 146.919 52.064 146.751 52.232C146.607 52.376 146.427 52.448 146.211 52.448H138.867C138.483 52.448 138.195 52.376 138.003 52.232C137.835 52.088 137.679 51.812 137.535 51.404C137.079 50.108 136.179 49.46 134.835 49.46C133.059 49.46 132.171 50.432 132.171 52.376ZM174.006 66.812C174.078 66.932 174.114 67.088 174.114 67.28C174.114 67.448 174.03 67.616 173.862 67.784C173.718 67.928 173.538 68 173.322 68H165.114C164.418 68 163.926 67.724 163.638 67.172L159.246 59.324V67.028C159.246 67.292 159.15 67.52 158.958 67.712C158.766 67.904 158.538 68 158.274 68H151.398C151.134 68 150.906 67.904 150.714 67.712C150.522 67.52 150.426 67.292 150.426 67.028V43.772C150.426 43.508 150.522 43.28 150.714 43.088C150.906 42.896 151.134 42.8 151.398 42.8H158.274C158.538 42.8 158.766 42.896 158.958 43.088C159.15 43.28 159.246 43.508 159.246 43.772V50.9L163.314 43.592C163.578 43.064 164.058 42.8 164.754 42.8H172.71C172.926 42.8 173.106 42.884 173.25 43.052C173.418 43.196 173.502 43.364 173.502 43.556C173.502 43.724 173.466 43.868 173.394 43.988L166.914 54.86L174.006 66.812ZM185.468 60.98H196.556C196.82 60.98 197.048 61.076 197.24 61.268C197.432 61.46 197.528 61.688 197.528 61.952V67.028C197.528 67.292 197.432 67.52 197.24 67.712C197.048 67.904 196.82 68 196.556 68H177.8C177.536 68 177.308 67.904 177.116 67.712C176.924 67.52 176.828 67.292 176.828 67.028V43.772C176.828 43.508 176.924 43.28 177.116 43.088C177.308 42.896 177.536 42.8 177.8 42.8H196.268C196.532 42.8 196.76 42.896 196.952 43.088C197.144 43.28 197.24 43.508 197.24 43.772V48.848C197.24 49.112 197.144 49.34 196.952 49.532C196.76 49.724 196.532 49.82 196.268 49.82H185.468V52.088H195.476C195.74 52.088 195.968 52.184 196.16 52.376C196.352 52.568 196.448 52.796 196.448 53.06V57.74C196.448 58.004 196.352 58.232 196.16 58.424C195.968 58.616 195.74 58.712 195.476 58.712H185.468V60.98ZM225.044 66.812C225.116 66.956 225.152 67.112 225.152 67.28C225.152 67.448 225.068 67.616 224.9 67.784C224.756 67.928 224.576 68 224.36 68H216.98C216.236 68 215.72 67.676 215.432 67.028L212.336 60.152H210.86V67.028C210.86 67.292 210.764 67.52 210.572 67.712C210.38 67.904 210.152 68 209.888 68H202.832C202.568 68 202.34 67.904 202.148 67.712C201.956 67.52 201.86 67.292 201.86 67.028V43.772C201.86 43.508 201.956 43.28 202.148 43.088C202.34 42.896 202.568 42.8 202.832 42.8H213.488C216.944 42.8 219.644 43.58 221.588 45.14C223.532 46.676 224.504 48.896 224.504 51.8C224.504 54.68 223.208 56.948 220.616 58.604L225.044 66.812ZM210.86 49.496V53.312H213.488C214.016 53.312 214.424 53.144 214.712 52.808C215 52.448 215.144 52.004 215.144 51.476C215.144 50.948 215 50.492 214.712 50.108C214.448 49.7 214.04 49.496 213.488 49.496H210.86Z" fill="black"/>
</svg>
