<svg width="35" height="35" viewBox="0 0 35 35" fill="none" xmlns="http://www.w3.org/2000/svg">
<path d="M13.475 35L12.6 29.4875C12.0458 29.2833 11.4625 29.0063 10.85 28.6562C10.2375 28.3062 9.69792 27.9417 9.23125 27.5625L4.06875 29.925L0 22.75L4.725 19.2937C4.66667 19.0312 4.63021 18.7323 4.61562 18.3969C4.60104 18.0615 4.59375 17.7625 4.59375 17.5C4.59375 17.2375 4.60104 16.9385 4.61562 16.6031C4.63021 16.2677 4.66667 15.9688 4.725 15.7063L0 12.25L4.06875 5.075L9.23125 7.4375C9.69792 7.05833 10.2375 6.69375 10.85 6.34375C11.4625 5.99375 12.0458 5.73125 12.6 5.55625L13.475 0H21.525L22.4 5.5125C22.9542 5.71667 23.5448 5.98646 24.1719 6.32188C24.799 6.65729 25.3313 7.02917 25.7688 7.4375L30.9312 5.075L35 12.25L30.275 15.6188C30.3333 15.9104 30.3698 16.224 30.3844 16.5594C30.399 16.8948 30.4062 17.2083 30.4062 17.5C30.4062 17.7917 30.399 18.0979 30.3844 18.4187C30.3698 18.7396 30.3333 19.0458 30.275 19.3375L35 22.75L30.9312 29.925L25.7688 27.5625C25.3021 27.9417 24.7698 28.3135 24.1719 28.6781C23.574 29.0427 22.9833 29.3125 22.4 29.4875L21.525 35H13.475ZM17.5 23.1875C19.075 23.1875 20.4167 22.6333 21.525 21.525C22.6333 20.4167 23.1875 19.075 23.1875 17.5C23.1875 15.925 22.6333 14.5833 21.525 13.475C20.4167 12.3667 19.075 11.8125 17.5 11.8125C15.925 11.8125 14.5833 12.3667 13.475 13.475C12.3667 14.5833 11.8125 15.925 11.8125 17.5C11.8125 19.075 12.3667 20.4167 13.475 21.525C14.5833 22.6333 15.925 23.1875 17.5 23.1875ZM17.5 20.5625C16.6542 20.5625 15.9323 20.2635 15.3344 19.6656C14.7365 19.0677 14.4375 18.3458 14.4375 17.5C14.4375 16.6542 14.7365 15.9323 15.3344 15.3344C15.9323 14.7365 16.6542 14.4375 17.5 14.4375C18.3458 14.4375 19.0677 14.7365 19.6656 15.3344C20.2635 15.9323 20.5625 16.6542 20.5625 17.5C20.5625 18.3458 20.2635 19.0677 19.6656 19.6656C19.0677 20.2635 18.3458 20.5625 17.5 20.5625ZM15.575 32.375H19.425L20.0375 27.475C21 27.2417 21.9115 26.8771 22.7719 26.3813C23.6323 25.8854 24.4125 25.2875 25.1125 24.5875L29.75 26.6L31.5 23.45L27.3875 20.4312C27.5042 19.9354 27.599 19.4469 27.6719 18.9656C27.7448 18.4844 27.7812 17.9958 27.7812 17.5C27.7812 17.0042 27.7521 16.5156 27.6938 16.0344C27.6354 15.5531 27.5333 15.0646 27.3875 14.5687L31.5 11.55L29.75 8.4L25.1125 10.4125C24.4417 9.65417 23.6833 9.01979 22.8375 8.50938C21.9917 7.99896 21.0583 7.67083 20.0375 7.525L19.425 2.625H15.575L14.9625 7.525C13.9708 7.72917 13.0448 8.07917 12.1844 8.575C11.324 9.07083 10.5583 9.68333 9.8875 10.4125L5.25 8.4L3.5 11.55L7.6125 14.5687C7.49583 15.0646 7.40104 15.5531 7.32812 16.0344C7.25521 16.5156 7.21875 17.0042 7.21875 17.5C7.21875 17.9958 7.25521 18.4844 7.32812 18.9656C7.40104 19.4469 7.49583 19.9354 7.6125 20.4312L3.5 23.45L5.25 26.6L9.8875 24.5875C10.5875 25.2875 11.3677 25.8854 12.2281 26.3813C13.0885 26.8771 14 27.2417 14.9625 27.475L15.575 32.375Z" fill="#4A72FF"/>
</svg>
