<svg width="35" height="35" viewBox="0 0 35 35" fill="none" xmlns="http://www.w3.org/2000/svg">
<path d="M17.5 35C15.0792 35 12.8042 34.5406 10.675 33.6219C8.54583 32.7031 6.69375 31.4563 5.11875 29.8813C3.54375 28.3063 2.29687 26.4542 1.37812 24.325C0.459375 22.1958 0 19.9208 0 17.5C0 15.0792 0.459375 12.8042 1.37812 10.675C2.29687 8.54583 3.54375 6.69375 5.11875 5.11875C6.69375 3.54375 8.54583 2.29687 10.675 1.37812C12.8042 0.459375 15.0792 0 17.5 0C19.3375 0 21.0802 0.2625 22.7281 0.7875C24.376 1.3125 25.9 2.04167 27.3 2.975L24.6313 5.64375C23.5813 5.03125 22.4583 4.55 21.2625 4.2C20.0667 3.85 18.8125 3.675 17.5 3.675C13.6792 3.675 10.4198 5.02396 7.72187 7.72187C5.02396 10.4198 3.675 13.6792 3.675 17.5C3.675 21.3208 5.02396 24.5802 7.72187 27.2781C10.4198 29.976 13.6792 31.325 17.5 31.325C21.3208 31.325 24.5802 29.976 27.2781 27.2781C29.976 24.5802 31.325 21.3208 31.325 17.5C31.325 17.0042 31.3031 16.5302 31.2594 16.0781C31.2156 15.626 31.15 15.1813 31.0625 14.7438L34.0375 11.7688C34.3583 12.6729 34.599 13.599 34.7594 14.5469C34.9198 15.4948 35 16.4792 35 17.5C35 19.9208 34.5406 22.1958 33.6219 24.325C32.7031 26.4542 31.4563 28.3063 29.8813 29.8813C28.3063 31.4563 26.4542 32.7031 24.325 33.6219C22.1958 34.5406 19.9208 35 17.5 35ZM15.0938 25.5063L7.6125 17.9812L10.1937 15.4L15.1375 20.3438L32.4188 3.0625L35 5.6L15.0938 25.5063Z" fill="#4A72FF"/>
</svg>
