<svg width="37" height="37" viewBox="0 0 37 37" fill="none" xmlns="http://www.w3.org/2000/svg">
<path d="M3 34H5.2L27.35 11.85L25.15 9.64998L3 31.8V34ZM33.7 9.69998L27.3 3.29998L29.4 1.19998C29.9667 0.633309 30.6667 0.349976 31.5 0.349976C32.3333 0.349976 33.0333 0.633309 33.6 1.19998L35.8 3.39998C36.3667 3.96664 36.65 4.66664 36.65 5.49998C36.65 6.33331 36.3667 7.03331 35.8 7.59998L33.7 9.69998ZM31.6 11.8L6.4 37H0V30.6L25.2 5.39998L31.6 11.8ZM26.25 10.75L25.15 9.64998L27.35 11.85L26.25 10.75Z" fill="#4A72FF"/>
</svg>
